<svg width="1024" height="992" viewBox="0 0 1024 992" fill="none" xmlns="http://www.w3.org/2000/svg"><path d="M426.65 370.86c2.003-7.636 2.964-15.145 6.33-21.94 6.96-14.057 17.606-22.762 33.897-23.124 2.103-.047 3.847-.69 5.522-1.937 16.324-12.14 34.698-14.84 54.464-12.414 18.573 2.28 33.697 11.634 48.628 21.844 9.084 6.212 15.32 14.658 20.712 23.953 4.912 8.467 5.09 18.145 7 27.37 2.055 9.937.962 19.866-.382 29.807-1.007 7.45-1.128 14.926.948 22.294 1.15 4.08 3.206 7.572 5.74 10.97 7.824 10.496 14.13 21.75 16.37 34.914.81 4.758.01 9.526.192 14.862 8.887-3.573 17.354-6.94 26.07-9.614 22.737-6.972 46.012-10.645 69.756-11.144 12.492-.263 24.998-.098 37.493.135 8.418.156 11.253 3.08 10.813 11.365-3.173 59.764-21.744 113.66-60.5 160.078-39.703 47.55-90.72 75.924-150.458 89.506-29.34 6.67-58.993 6.717-88.818 2.816-57.576-7.53-106.615-32.24-147.975-72.575-29.633-28.898-50.46-63.313-64.06-102.387-7.402-21.264-11.09-43.073-12.743-65.367-.27-3.647-.797-7.29-.835-10.937-.063-6.09 2.57-9.264 8.536-10.437 2.932-.577 5.932-.913 8.916-1.08 45.805-2.577 89.964 4.292 132.023 23.127 1.193.534 2.338 1.31 4.024.806.893-2.663.672-5.518.05-8.2-4.727-20.327-1.192-38.868 11.187-55.82 10.76-14.735 16.095-31.268 15.16-49.647-.29-5.7.483-11.29 1.94-17.226zm-22.79 174.49c-7.664 8.7-13.692 18.45-18.363 29.028-7.51 17.012-10.943 34.702-6.45 53.035 12.043 49.145 43.207 81.44 89.52 99.947 4.903 1.96 10.046 3.82 16.802 3.685-2.798-2.554-4.67-4.375-6.657-6.06-7.936-6.726-14.542-14.638-20.626-23.016-12.323-16.97-19.757-36.16-25.013-56.24-1.92-7.338-4.845-14.57-4.33-22.4.203-3.07-.413-6.486 4.527-6.717 8.72-.407 9.165-.358 10.184 5.622 3.627 21.29 9.277 41.92 19.836 60.947.928 1.672 1.427 3.738 3.994 4.828 5.314-11.448 15.223-18.658 24.552-26.395 2.64-2.19 3.65-4.778 2.76-7.94-2.487-8.83 1.827-14.543 8.36-19.576 11.45-8.824 24.697-8.122 37.805-6.902 4.885.454 7.102-.71 8.535-5.068 2.16-6.576 6.654-11 13.192-13.377 7.62-2.77 7.985-4.338 1.744-9.8-7.266-6.36-14.858-12.347-22.175-18.65-5.036-4.34-8.59-9.734-10.04-16.316-1.16-5.252.32-6.702 5.705-7.215 5.09-.485 8.275.927 9.53 6.21.44 1.854 1.85 3.51 2.95 5.17 5.163 7.8 12.47 13.37 19.912 18.733 4.443 3.202 7.552 9.465 12.59 9.995 4.986.524 10.374-2.967 15.613-4.608 5.322-1.666 5.37-2.382 2.02-7.07-9.573-13.388-22.975-22.018-36.744-30.28-22.15-13.29-43.972-26.91-62.94-44.838-12.43-11.75-28.34-19.11-41.25-30.233-.664.54-1.03.692-1.137.95-.57 1.382-1.146 2.77-1.593 4.193-3.608 11.486-10.302 20.916-19.655 28.31-11.947 9.446-22.497 20.286-33.155 32.048zm-54.94-14.953c9.994.67 19.744 2.614 29.333 5.48 14.243 4.257 15.148 3.915 23.824-8.203.29-.406.595-.804.875-1.217 3.54-5.228 3.012-7.115-2.802-9.924-4.647-2.245-9.35-4.38-13.95-6.72-35.06-17.825-72.595-24.732-111.53-24.274-13.946.163-16.77-.786-14.386 15.24 2.864 19.245 5.596 38.51 11.463 57.133 18.4 58.4 53.804 103.826 104.965 137.166 14.035 9.145 28.797 16.83 44.8 22.014-19.67-15.683-35.298-35.352-53.088-52.84-27.46-26.997-44.673-60.202-55.445-96.876-2.664-9.067-5.384-18.18-6.287-27.67-.454-4.774 1.484-7.296 6.503-8.15 11.576-1.968 23.176-1.854 35.725-1.16zm291.292 3.154c19.802-5.556 39.83-7.387 60.225-3.83 6.43 1.12 8.456 3.91 7.26 10.374-4.7 25.415-13.3 49.48-25.49 72.213-13.003 24.254-26.936 47.802-47.397 66.937-10.31 9.64-18.128 21.715-29.026 32.393 43.884-19.493 81.462-52.017 108.55-93.87 24.104-37.247 38.116-77.808 39.517-122.42.255-8.095-2.274-10.83-10.385-11.116-14.51-.51-28.99.566-43.303 2.426-24.906 3.236-48.602 11.002-71.4 21.53-4.435 2.048-7.762 4.927-9.862 9.4-3.417 7.28-8.022 13.804-13.33 19.838a385.087 385.087 0 0 0-5.556 6.418c-1.798 2.137-3.54 4.322-5.305 6.486 14.427-7.522 29.467-12.318 45.502-16.777zM530.272 387.29c-15.598-8.524-33.792-11.47-48.29-23.083-2.27 3.216-4.318 6.012-6.257 8.882-9.23 13.656-19.028 26.974-26.09 41.96-5.71 12.12-5.282 23.88 3.06 34.818 4.443 5.826 8.7 11.837 13.598 17.264 10.26 11.37 21.93 20.867 36.757 25.9 4.827 1.638 9.305 1.57 14.018-.378 9.314-3.85 15.03-11.326 20.178-19.413 10.378-16.303 16.942-34.308 22.958-52.504 2.19-6.63.844-12.782-4.892-17.584-7.46-6.245-15.62-11.34-25.04-15.864zm32.24 254.357c.992 3.774 2.843 7.052 5.4 10.012 1.946 2.252 2.276 5.095-.932 6.01-3.41.972-7.71 1.74-10.596-.715-7.987-6.796-17.258-9.748-27.41-10.765-1.793-.18-3.232-1.077-3.428-3.043-.23-2.323 1.376-3.277 3.304-3.644 1.95-.37 3.943-.623 5.925-.686 3.416-.11 6.838-.03 10.933-.03-3.47-3.89-7.4-4.895-11.578-4.36-6.632.847-13.108 2.483-18.692 6.433-3.158 2.233-6.43 4.71-6.035 9.114.384 4.27 4.135 6.016 7.43 7.35 7.08 2.864 14.238 5.647 21.975 6.377 2.697.255 5.7.645 5.302 4.438-.343 3.275-2.752 4.064-5.763 4.213-4.938.244-9.757-.42-15.495-2.317 1.35 7.17 2.915 13.028 5.3 18.642 2.616 6.152 7.446 9.778 13.963 10.826 2.762.444 5.197 1.165 7.1 3.182 2.63 2.792 4.815 1.894 7.192-.436 4.528-4.442 8.752-9.142 12.617-14.163 3.65-4.74 3.487-5.533-1.696-8.67-1.626-.985-3.292-1.9-2.588-4.215.656-2.156 2.45-2.333 4.38-2.508 6.665-.603 12.963 1.086 18.98 3.476 7.833 3.114 15.404 2.892 23.386.575 24.213-7.025 35.5-31.353 24.855-54.132-9.433-20.19-28.914-26.238-47.832-14.844-4.704 2.833-9.08 6.594-14.15 8.35-8.13 2.816-10.675 8.867-11.77 16.237-.413 2.77-.157 5.64-.076 9.295zM544.02 528.444c11.13 7.535 22.385 14.86 34.81 21.208 5.335-10.37 14.16-17.547 20.654-26.533 10.336-14.304 14.503-30.116 9.214-47.59a42.598 42.598 0 0 0-5.588-11.65c-8.44-12.404-19.216-22.766-28.99-33.806-1.543.72-1.614 1.783-1.987 2.69-4.545 11.08-8.504 22.396-13.753 33.188-8.48 17.432-20.525 31.006-39.572 37.162-1.24.4-2.62.7-3.162 2.836 8.382 8.188 18.186 15.01 28.374 22.494zM500.6 361.87c4.46 2.24 8.81 4.74 13.4 6.672 12.42 5.227 25.06 9.94 36.81 16.67 12.98 7.434 23.88 16.892 30.805 30.456 1.093 2.14 2.287 4.37 4.614 6.02 2.208-12.67 3.4-25.158 2.688-37.79-.55-9.712-3.608-18.607-9.132-26.563-13.678-19.698-32.54-32.025-55.406-38.583-14.578-4.18-27.198.432-38.974 8.678-3.24 2.27-4.91 5.294-3.66 9.486 3.102 10.424 8.387 19.187 18.855 24.955zM671.88 549.36c3.817-3.506 8.585-6.018 11.757-10.432-2.21-2.206-4.49-1.732-6.54-1.597-8.286.544-16.563 1.204-24.707 2.995-17.697 3.894-34.144 10.878-49.75 19.967-2.077 1.21-4.556 2.498-1.964 5.23 7.052 7.426 14.593 14.406 20.243 23.54 17.402-13.01 34.222-25.72 50.96-39.704zm-37.672 48.147c.07 2.677 2.114 4.04 3.807 5.586 5.977 5.453 10.83 11.678 13.955 19.222.924 2.23 1.264 4.79 3.47 7.122 15.718-23.475 25.796-49.035 33.748-75.965-2.66-.01-3.748 1.378-4.992 2.353a22591.848 22591.848 0 0 0-46.67 36.7c-1.437 1.132-2.874 2.305-3.318 4.982zm-191.58-116.472c2.135-8.957 1.104-17.512-3.56-25.48-4.513-7.713-9.15-15.34-8.397-26.024-4.836 8.33-9.022 15.442-13.108 22.61-4.673 8.2-6.234 17.054-5.477 26.412.844 10.43 4.48 19.86 9.833 29.52 8.53-8.03 17.65-14.63 20.71-27.04zm43.234 202.342c-1.275 2.335-2.752 4.583-3.79 7.018-4.575 10.735-2.757 18.74 5.832 26.537 1.01.916 2.038 1.803 3.473 1.742 6.474-.28 13.013.518 19.41-1.065 3.284-.813 4.764-2.354 2.14-5.562a43.176 43.176 0 0 1-3.733-5.31c-2.322-3.926-1.736-6.393 2.588-7.72 4.32-1.327 4.17-3.478 2.43-6.636-3.645-6.62-6.21-13.626-7.335-21.112-.54-3.59-2.4-4.01-5.26-2.464-6.27 3.39-11.474 7.957-15.755 14.57zm-141.08-114.63-17.467-13.434-1.373 1.192c7.264 29.42 20.03 56.23 39.097 80.957 0-1.31.106-1.79-.016-2.2-4.333-14.553-4.732-29.123-.578-43.816 1.16-4.097-.7-7.563-3.86-10.16-5.01-4.12-10.155-8.077-15.804-12.54zm176.47 163.56c2.974.6 6.004.63 8.947.146 28.94-4.746 53.35-17.95 73.18-39.555 1.258-1.37 3.066-2.652 2.49-5.752-4.235 0-8.64.644-12.747-.19-3.784-.766-6.07.416-8.22 2.97-1.28 1.525-2.564 3.066-3.665 4.72-5.82 8.742-13.527 15.55-22.132 21.36-6.173 4.168-13.942 2.553-17.983-3.387-1.72-2.528-3.66-4.637-7.27-3.97 2.563 7.388 2.522 7.333-3.89 12.186-4.324 3.272-9.256 4.248-14.5 4.48-1.99.086-4.41-.878-5.958 1.982 2.792 3.554 7.02 3.83 11.748 5.01zm-166.51-171.58 15.664 12.207c3.588-6.563 6.67-12.788 10.316-18.66 2.436-3.92 1.565-6.19-2.41-7.61-12.404-4.432-25.093-7.618-38.305-8.39-2.19-.127-4.402-.416-5.4 2.3-.924 2.516.36 4.12 2.146 5.566 5.82 4.705 11.635 9.413 17.99 14.587zM466.848 362.27c5.803-7.418 5.635-16.878-3.012-26.457-9.096 3.393-21.443 19.512-20.672 34.17 14.275 3.125 14.275 3.125 23.684-7.713zm-22.093 31.546c1.286-3.307 2.75-6.595 1.33-10.638-3.724 6.58-4.236 8.825-3.064 13.402.563-.82 1.02-1.483 1.734-2.764z" fill="#239DD8"/><path d="M366.73 204.317c.89 1.444 1.752 2.515 2.248 3.734 1.767 4.35 4.527 6.317 9.324 4.578 2.337-.847 4.663-.82 5.897 1.983 1.413 3.22-1.586 3.593-3.187 4.59-7.78 4.842-15.64 9.553-23.502 14.263-1.63.978-3.317 2.666-5.252.423-1.85-2.145-1.047-4.077.69-5.694 3.975-3.698 3.158-7.095.435-11.352-7.257-11.343-14.03-22.997-21.85-34.26 2.077 9.903 4.22 19.792 6.213 29.71 1.767 8.796 3.84 17.52 4.836 26.485.506 4.558-2.825 5.045-5.183 6.83-2.386 1.808-4.177.804-6.17-.864-14.28-11.942-28.628-23.805-43.575-35.207 7.514 12.49 15.037 24.973 22.53 37.474 1.176 1.96 2.693 2.715 5.01 2.24 1.774-.367 3.633-.417 5.456-.433 1.758-.015 2.667 1.26 3.213 2.72.605 1.62-.545 2.468-1.715 3.177a8063.308 8063.308 0 0 1-20.116 12.137c-1.177.71-2.43 1.402-3.55-.002-1.188-1.486-2.306-3.324-.622-4.918 5.648-5.345 3.038-9.98-.377-15.297-7.02-10.93-13.59-22.154-20.114-33.392-2.2-3.787-4.563-5.945-9.197-4.392-2.26.757-4.77.894-5.884-2.036-1.167-3.065 1.636-3.643 3.298-4.678 6.788-4.227 13.755-8.174 20.472-12.508 2.783-1.795 4.625-1.36 7.008.66 11.79 10 23.71 19.84 36.104 30.173-.197-6.093-1.91-11.402-3.027-16.78-2.03-9.773-4.188-19.522-6.53-29.223-.798-3.31.002-5.197 2.994-6.878 6.97-3.917 13.726-8.21 20.625-12.255 1.454-.852 3.07-2.497 4.856-.477 1.61 1.82 1.453 3.854-.205 5.366-4.606 4.2-3.203 8.04-.28 12.605 6.56 10.24 12.648 20.78 19.126 31.502z" fill="#239DD8"/><path d="M728.828 285.254c-10.218-6.016-19.128-12.896-23.987-23.746-6.773-15.126-2.41-31.966 11.29-44.177 12.334-10.99 29.372-12.92 43.58-4.635 10.565 6.16 18.39 15.244 25.52 24.984 1.287 1.756 1.2 3.343-.22 4.948-3.198 3.616-6.368 7.256-9.572 10.867-1.104 1.245-2.23 2.8-4.123 1.262-1.628-1.324-3.792-2.395-3.354-5.083.105-.645.32-1.34.694-1.86 5.84-8.156.12-13.518-4.628-19.058-5.438-6.347-12.23-9.234-20.502-6.936-11.69 3.248-25.246 20.145-26.182 32.238-.708 9.146 4.644 16.917 13.48 19.923 2.087.71 3.525.33 4.86-1.22 2.283-2.65 4.543-5.318 6.857-7.94 2.17-2.457.13-4.207-.859-6.242-1.32-2.723-5.61-5.52-1.777-8.552 3.56-2.82 5.34 1.906 7.496 3.636 6.62 5.31 12.97 10.96 19.356 16.558 1.268 1.11 3.395 2.063 2.138 4.42-1.245 2.336-3.263 2.738-5.52 1.717-4.276-1.932-7.155-.385-9.74 3.188-2.433 3.36-5.5 6.258-7.978 9.59-1.99 2.682-4.006 3.034-6.8 1.427-3.17-1.825-6.463-3.437-10.028-5.308z" fill="#239DD8"/><path d="M493.764 116.826c2.873 7.753 2.72 15.73 3.525 23.57 1.424 13.87 2.776 27.748 3.945 41.64.287 3.41 2.62 3.847 4.977 4.594 2.113.67 4.247 1.24 3.997 4.19-.233 2.75-2.51 2.826-4.35 3.282-3.868.96-7.79 1.7-11.68 2.584-7.353 1.668-7.35 1.683-9.13-5.248-2.308 1.876-4.422 4.027-6.92 5.547-11.504 7.005-25.403 2.954-31.335-9.183-4.26-8.716-4.762-17.862-2.135-27.174 4.174-14.796 17.35-22.12 32.105-17.9.76.217 1.564.27 2.546.432.947-4.587.203-8.837-.634-13.037-.624-3.13-3.745-2.882-5.94-3.773-2.026-.823-4.225-1.26-4.04-4.206.186-2.955 2.678-2.755 4.424-3.006 6.733-.967 13.505-1.656 20.644-2.312zm-31.964 58.67c1.408 5.238 3.195 10.205 8.835 12.437 5.627 2.227 13.202-1.424 12.932-6.658-.452-8.745-1.548-17.46-2.45-26.178-.195-1.894-.99-3.29-3.206-3.86-8.71-2.24-15.92 2.56-16.587 11.524-.293 3.947.13 7.946.477 12.736z" fill="#239DD8"/><path d="M812.95 409.545c-2.01-.027-2.473-1.4-3.034-2.564-3.474-7.19-6.903-14.403-10.34-21.613-.713-1.498-1.722-3.054.212-4.404 1.683-1.175 3.46-1.39 4.976.188 2.998 3.12 6.012 2.466 9.448.65 6.47-3.415 13.262-6.24 19.615-9.85 7.527-4.275 7.398-12.325.137-17.178-2.088-1.395-3.91-1.122-6.038-.077a962.965 962.965 0 0 1-22.081 10.518c-2.916 1.342-5.116 2.87-5.039 6.552.05 2.353-1.173 4.275-3.74 4.562-2.494.28-2.706-2.083-3.454-3.612-3.29-6.726-6.525-13.48-9.7-20.26-.73-1.56-2.084-3.305.164-4.834 1.83-1.244 3.67-.95 4.912.647 3.036 3.908 6.116 3.12 9.967 1.105 7.662-4.008 15.543-7.605 23.406-11.215 2.94-1.35 4.62-3.007 3.803-6.515-.513-2.207-.25-4.315 2.375-5.337 3.015-1.174 3.747 1.29 4.875 2.988 2.394 3.604 4.698 7.268 7.002 10.93 3.52 5.6 3.507 5.61-2.34 9.058 2.16 1.186 4.22 2.108 6.054 3.358 7.007 4.776 10.414 11.538 10.125 19.953-.254 7.397-5.027 11.634-11.205 14.623-7.49 3.623-14.956 7.298-22.524 10.748-2.906 1.327-4.656 2.983-4.27 6.397.262 2.328-.36 4.324-3.306 5.188z" fill="#239DD8"/><path d="M153.907 484.32c-2.4-.352-4.405-.536-6.33-1.032-3.32-.856-5.793-.194-7.423 3.095-1.015 2.048-2.656 3.522-5.238 2.748-2.656-.794-2.142-3.128-2.077-5.008.187-5.48.437-10.963.91-16.424.435-5.003 4.205-2.036 7.22-2.705-4.437-6.05-6.148-12.57-4.378-19.955 2.437-10.163 9.778-15.59 20.17-14.092 8.557 1.234 17.115 2.547 25.586 4.26 3.508.71 5.815.088 7.495-3.01 1.152-2.122 2.773-3.308 5.315-2.403 2.845 1.014 1.698 3.178 1.4 5.04-1.15 7.22-2.26 14.448-3.584 21.637-.325 1.765-.04 4.373-2.895 4.554-2.674.168-3.862-1.654-4.355-3.952-.656-3.058-2.566-4.334-5.567-4.775-7.395-1.09-14.757-2.4-22.136-3.603-3.61-.588-7.173-.413-9.57 2.725-2.606 3.41-2.728 7.402-1.51 11.422.72 2.377 2.633 3.307 4.902 3.675 8.53 1.383 17.066 2.73 25.59 4.146 2.718.45 4.914-.147 6.534-2.51 1.348-1.965 3.146-3.124 5.53-1.96 2.586 1.264 1.194 3.44.915 5.29-1.068 7.072-2.062 14.158-3.352 21.19-.332 1.815.246 4.716-3.115 4.764-2.852.042-3.788-1.97-4.015-4.2-.44-4.317-3.432-5.225-6.913-5.783-6.232-1-12.452-2.068-19.11-3.135z" fill="#239DD8"/><path d="M165.11 612.162c1.613-.623 2.88-1.045 4.1-1.58 16.373-7.158 20.1-25.43 7.876-38.585-.68-.732-1.427-1.4-2.125-2.116-1.816-1.86-4.546-3.513-2.902-6.658 1.157-2.214 6.926-2.14 9.555.088 7.7 6.524 13.344 14.412 15.344 24.502 3.37 17-2.777 31.206-16.896 39.26-16.14 9.21-35.34 7.962-47.59-3.187-7.223-6.574-10.967-15.044-12.28-24.52-.818-5.91-1.605-11.857-1.53-17.88.036-2.938.876-4.69 3.908-5.338 4.393-.94 8.735-2.118 13.103-3.173 2.012-.486 3.795-.192 4.29 2.132.426 1.995 1.646 4.243-.87 5.852-.42.27-.85.527-1.272.792-11.648 7.32-10.984 23.396 1.202 30.224 6.747 3.78 13.783 3.072 20.894 1.603 1.628-.336 3.22-.84 5.197-1.415z" fill="#239DD8"/><path d="M265.107 294.528c2.38 16.942-11.422 32.86-24.243 35.584-12.7 2.7-22.465-2.87-30.103-12.35-7.532-9.35-7.998-19.787-2.55-30.384 1.428-2.78 3.347-5.374 5.387-7.757 6.976-8.148 15.607-12.475 26.506-9.933 11.644 2.715 19.896 9.606 24.03 21.035.395 1.088.596 2.247.974 3.806zm-28.627-7.543c-2.753-1.61-5.682-2.83-8.812-3.37-6.967-1.204-13.4 5.815-10.54 12.096 4.902 10.763 13.653 17.382 25.154 20.025 3.984.915 7.532-.427 9.865-4.206 2.32-3.76 1.65-7.255-.496-10.776-3.57-5.86-8.858-9.84-15.17-13.77z" fill="#239DD8"/><path d="M663.986 214.91c-14.318 14.92-38.03 12.84-49.437-4.047-6.146-9.096-5.227-23.193 2.2-33.786 6.79-9.682 18.167-13.83 29.87-10.89.484.123.957.283 1.436.423 23.43 6.848 30.614 28.19 15.93 48.3zm-35.853-5.812c4.286 7.565 10.832 8.658 16.492 2.27 6.37-7.19 9.697-15.83 10.036-25.48.16-4.55-1.684-8.106-6.06-9.966-4.502-1.913-8.463-.4-11.22 3.027-6.858 8.522-11.16 18.054-9.247 30.148z" fill="#239DD8"/><path d="M188.275 522.1c.29 5.076.638 9.74-.49 14.326-3.203 13.01-14.333 20.977-28.785 20.65-13.978-.32-25.738-9.74-28.298-22.37-1.473-7.26-1.177-14.237 2.223-20.885 4.386-8.577 13.295-13.085 22.825-12.042 3.254.356 3.528 2.208 3.62 4.773.32 8.806.597 17.62 1.23 26.404.45 6.254 2.28 7.057 7.943 4.14 6.767-3.487 9.91-11.682 7.718-20.78-.773-3.217-2.13-6.29-3.164-9.448-.572-1.75-2.622-3.832-.06-5.24 2.475-1.358 5.3-1.177 7.148 1.434 3.98 5.627 6.96 11.72 8.09 19.04zm-49.48 9.463c1.337 4.374 4.824 6.1 8.854 7.04 2.534.593 4.266-.13 4.2-3.165-.09-3.975-.184-7.952-.178-11.928.004-2.575-1.204-3.465-3.7-3.405-6.135.15-9.68 4.114-9.177 11.458z" fill="#239DD8"/><path d="M776.558 324.4c3.077 4.07 6.747 6.868 10.82 9.24 1.595.93 4.287 1.686 3.13 4.236-.96 2.12-3.064 3.525-5.702 3.286-13.828-1.25-28.985-20.244-28.078-35.158.864-14.207 15.776-26.88 31.214-26.53 16.827.383 31.525 17.395 28.39 32.777-1.514 7.437-6.173 12.277-12.46 15.988-2.457 1.45-3.616.126-4.897-1.588a4695.577 4695.577 0 0 0-15.595-20.745c-1.292-1.71-2.345-3.645-4.223-4.827-8.21 4.353-9.29 13.324-2.6 23.32zm13.544-31.29c-1.362.905-4.276 1.195-2.626 3.668 3.16 4.735 6.413 9.472 10.344 13.52 7.818-5.21 9.075-12.157 3.404-16.51-3.24-2.488-6.834-1.947-11.122-.68z" fill="#239DD8"/><path d="M424.92 179.117c-8.35 2.52-16.318 4.928-24.28 7.355-.294.09-.53.377-.792.575a12.69 12.69 0 0 0 11.975 11.648c8.122.466 14.874-2.864 21.047-7.788 1.566-1.25 3.382-3.712 5.432-1.333 1.588 1.842 2.323 4.54.416 6.9-7.895 9.78-21.664 17.984-35.97 15.377-12.85-2.34-19.178-11.414-21.756-23.3-4.698-21.656 14.39-39.96 35.968-34.794 9.237 2.212 16.302 10.76 16.868 20.115.12 1.995-.79 2.73-2.32 3.227-2.055.672-4.134 1.275-6.588 2.02zm-16.558-16.147c-9.204-1.937-14.07 4.328-11.474 14.776.31.09.66.318.927.246 3.67-1 7.33-2.044 10.994-3.07 6.768-1.892 7.425-3.984 2.85-9.383-.733-.868-1.75-1.494-3.298-2.57z" fill="#239DD8"/><path d="M829.492 435.685c-.5 8.275 2.38 15.014 6.968 21.198 1.227 1.655 3.468 3.606 1.04 5.512-2.055 1.616-4.72 2.285-7.213-.085-10.307-9.806-15.39-21.58-13.356-35.88.718-5.04 3.296-9.376 6.946-12.998 8.91-8.843 25.202-11.072 36.628-5.007 10.605 5.63 16.923 19.466 14.587 31.943-1.9 10.143-10.417 17.34-21.013 18.262-3.356.292-3.53-1.893-4.04-3.847-2.185-8.358-4.228-16.754-6.324-25.136-.477-1.907-.67-3.92-2.207-5.815-6.546 1.12-10.454 4.974-12.014 11.853zm22.295-14.193c-1.22 6.098 1.98 11.36 3.262 16.98.183.807 1.153 1.047 2.05 1.09 5.215.247 10.4-6.31 8.902-11.287-1.71-5.687-4.84-7.303-14.215-6.783z" fill="#239DD8"/><path d="M849.082 607.968c-6.27 8.612-11.484 10.847-19.134 8.42-7.526-2.39-11.85-8.993-12.298-18.08-.527-10.7 2.81-20.284 7.68-29.56 1.423-2.71 3.314-3.505 6.1-2.823 2.263.554 4.532 1.086 6.788 1.666 1.972.508 4.835.203 4.347 3.477-.42 2.818-.347 5.86-4.73 6.396-6.732.824-12.677 10.102-11.433 16.908.457 2.507 1.77 4.324 4.25 5.05 2.564.75 4.74-.18 6.058-2.35 3.017-4.977 5.773-10.11 8.725-15.13 2.673-4.542 6.503-7.588 11.873-8.178 7.348-.808 13.042 2.422 16.173 9.136 3.238 6.94 3.334 14.153 1.527 21.464-.56 2.26-1.07 4.562-1.93 6.715-5.31 13.31-2.686 11.414-16.522 8.548-1.98-.41-4.207-.754-3.677-3.618.472-2.555.53-5.694 4.096-5.975 6.973-.55 8.674-5.94 10.397-11.17.898-2.726.167-5.46-2.527-6.94-2.946-1.618-5.747-.595-7.45 1.993-2.924 4.44-5.432 9.15-8.31 14.053z" fill="#239DD8"/><path d="M875.728 494.812c.006-1.244.023-2.077-.02-2.908-.165-3.19-1.706-5.593-4.85-6.124-3.354-.565-5.235 1.858-6.222 4.655-.99 2.806-1.51 5.777-2.244 8.673-.775 3.058-1.33 6.195-2.385 9.153-2.078 5.83-5.713 10.157-12.316 10.963-6.87.838-12.39-1.46-16.447-7.186-3.066-4.328-4.797-9.233-5.324-14.366-.783-7.613-.67-15.275.938-22.838.544-2.556 1.647-4.19 4.624-4.175 2.31.012 4.62-.587 6.937-.67 2.23-.083 5.058-.756 5.647 2.514.528 2.925.858 5.71-2.9 7.49-6.05 2.862-9.006 13.14-5.955 19.09 1.141 2.225 2.804 3.718 5.445 3.726 2.695.008 4.464-1.458 5.17-3.908 1.1-3.82 1.918-7.72 2.885-11.577.644-2.574 1.103-5.226 2.05-7.687 4.477-11.625 18.553-13.946 26.682-4.42 3.888 4.556 6.223 9.975 6.684 15.86.467 5.95.134 11.968.03 17.954-.063 3.555-1.727 5.52-5.603 5.327-1.97-.098-3.96.417-5.95.5-2.153.093-5.07 1.46-5.676-2.033-.493-2.837-1.252-6.17 2.697-7.577 4.758-1.695 5.41-5.858 6.1-10.43z" fill="#239DD8"/><path d="M165.615 383.437c-.598 2.432-2.028 4.274-1.596 7.07 9.03 3.175 18.173 6.69 27.518 9.54 4.344 1.327 7.168-1.98 9.01-5.494 1.136-2.165 1.553-4.706 2.297-7.077.46-1.472.96-2.976 2.957-2.686 1.5.218 2.768.715 3.47 2.372 3.555 8.393-1.495 24.72-9.233 29.75-3.327 2.16-6.704 2.452-10.44 1.093-9.22-3.352-18.524-6.47-27.73-9.853-3.123-1.148-5.088-.764-6.028 2.69-.625 2.293-1.693 3.866-4.652 2.88-2.718-.903-4.362-1.965-3.642-5.285.92-4.24-1.148-6.818-5.09-8.48-6.176-2.603-7.312-1.43-5.06-10.244.607-2.376.465-4.97 2.21-7.153 3.92-.02 7.366 1.785 10.858 3.168 2.897 1.146 4.28.4 5.192-2.416 1.176-3.636 2.685-7.166 3.84-10.81.852-2.692 2.276-3.515 4.813-2.174 2.147 1.134 5.724 1.107 4.127 5.24-.96 2.478-1.79 5.006-2.822 7.87z" fill="#239DD8"/><path d="M224.302 354.347c2.184-1.582 3.834-.762 5.14.646 1.345 1.447.033 2.817-.638 4.066-4.174 7.77-8.36 15.535-12.644 23.246-.88 1.583-1.284 4.183-4.153 3.238-2.535-.835-3.06-2.67-2.468-5.16.843-3.55-.48-5.848-3.89-7.56-7.88-3.96-15.62-8.203-23.304-12.534-2.987-1.683-5.37-1.907-8.02.62-1.606 1.533-3.6 3.326-6.168 1.466-2.765-2.002-.794-4.252-.092-6.267 1.48-4.24 3.388-8.333 4.793-12.593 1.38-4.185 3.344-6.026 7.517-3.068.637.45 1.52.555 2.47.882.75-2.675-.736-4.733-1.322-6.83-1.164-4.165-.34-7.918 1.428-11.58 3.445-7.132 6.325-8.046 13.177-4.367 1.026.55 2.042 1.12 3.062 1.685 7.202 3.978 7.203 4.11 2.817 11.064-1.09 1.726-2.208 2.557-4.43 2.31-3.77-.42-5.83 1.85-6.733 5.296-.897 3.428-.13 6.275 3.156 8.055 7.172 3.882 14.384 7.69 21.544 11.595 4.72 2.573 5.738-2.497 8.755-4.213z" fill="#239DD8"/><path d="M592.822 161.154c-8.06-5.126-10.618-4.455-14.526 3.625-2.193 4.532-3.655 9.313-3.91 14.348-.608 12.083 8.507 18.983 21.45 16.32 2.243-.46 4.405-1.646 7.098-.458.786 4.13-.253 7.013-4.735 8.708-6.56 2.482-13.21 3.587-20.06 2.17-12.623-2.613-20.76-11.28-21.44-22.44-.965-15.77 5.858-27.652 18.743-32.51 10.54-3.972 20.514-2.565 30.175 3.023 3.47 2.01 4.432 4.302 3.366 8.18-2.9 10.547-3.454 10.768-11.38 3.207-1.444-1.378-2.99-2.646-4.782-4.173z" fill="#239DD8"/><path d="M523.98 169.328c.405-5.11.745-9.753 1.14-14.392.154-1.803-.858-2.762-2.274-3.496-1.626-.843-3.287-1.625-4.875-2.532-1.57-.898-1.568-2.405-1.297-3.96.29-1.654 1.49-2.116 2.922-2.115 6.83.004 13.66.013 20.49.095 3.126.037 3.242 2.295 3.074 4.59-.8 10.944-1.423 21.907-2.51 32.824-.818 8.21-1.112 8.226 5.888 11.936 1.823.966 3.015 2.093 2.517 4.276-.52 2.28-2.366 2.003-4.01 1.895a6254.66 6254.66 0 0 1-29.36-2.003c-1.156-.08-2.414-.183-2.702-1.68-.265-1.375-.224-3.275 1.092-3.523 13.5-2.538 8.497-13.44 9.905-21.916z" fill="#239DD8"/><path d="M881.088 530.445c.128 6.928-.007 13.418.21 19.895.136 4.073-1.644 5.223-5.416 4.885-11.732-1.053-23.49-1.835-35.21-2.973-4.455-.432-7.37.67-8.582 5.303-.508 1.942-1.598 3.746-4.25 3.24-2.993-.57-2.271-2.903-2.147-4.75.62-9.277 1.354-18.547 2.048-27.82.115-1.53.234-3.052 2.194-3.39 1.883-.326 3.76.25 3.887 2.14.61 9.04 7.433 8.172 13.39 8.643 6.29.498 12.607.68 18.88 1.31 4.013.404 6.684-.653 8.205-4.628 1.197-3.128 3.165-5.294 6.793-1.855z" fill="#239DD8"/><path d="M298.698 785.553c2.61 1.704 2.775 3.357.95 5.52-6.866 8.15-13.567 16.44-20.48 24.55-3.69 4.327-8.074 7.836-14.277 6.144-6.857-1.87-11.87-5.99-13.59-13.23-.498-2.1-1.906-4.988 1.485-5.745 2.86-.64 5.063.565 5.486 4.128.48 4.047 3.16 6.615 7.002 7.6 3.93 1.008 6.615-1.113 8.868-4.306-.5-.407-.81-.807-1.216-.967-9.366-3.714-13.624-10.177-11.937-18.164 2.052-9.706 11.076-17.644 19.842-17.412 6.09.162 10.44 3.312 13.16 8.49 1.075 2.045 2.314 3 4.708 3.393zm-31.078 8.976c2.186 9.38 9.092 11.637 16.07 5.24 2.362-2.165 4.21-4.657 5.333-7.727 1.323-3.612.395-6.597-2.285-9.047-2.813-2.57-6.067-3.495-9.617-1.466-4.835 2.766-8.264 6.654-9.5 13z" fill="#239DD8"/><path d="M209.578 745.59c-9.46-8.083-12.02-17.99-7.298-27.304 5.24-10.332 19.043-17.536 29.058-15.166 15.494 3.667 21.82 22.58 11.646 34.815-9.462 11.378-22.233 14.416-33.406 7.654zm20.16-35.684c-8.345-.835-14.342 3.43-19.276 9.37-6.467 7.786-3.22 19.17 6.417 22.302 7.65 2.487 13.48-1.617 18.636-6.555 9.09-8.707 6.687-20.17-5.777-25.117z" fill="#239DD8"/><path d="M332.63 843.454c-1.146 2.8-2.076 4.992-5.57 3.257-3.208-1.593-2.136-3.63-1.1-5.783 3.83-7.956 7.74-15.875 11.524-23.852 1.75-3.686 3.97-3.73 6.432-.937.777.882 1.104 1.843 2.583 1.78 6.765-.286 11.446 2.843 13.995 8.9 1.704.82 3.134-.068 4.595-.132 9.913-.436 16.192 7.827 12.458 16.945-2.646 6.464-6.01 12.63-9.016 18.95-1.032 2.17-2.36 2.974-4.757 1.833-2.71-1.29-2.55-3.008-1.408-5.285 2.686-5.362 5.358-10.736 7.848-16.19 2.12-4.643 1.18-7.846-2.53-9.76-3.587-1.85-6.984-.604-9.37 3.927-2.79 5.302-5.265 10.772-7.827 16.193-1.06 2.247-2.284 3.53-5.024 2.192-2.783-1.36-2.354-3.125-1.28-5.316 2.564-5.237 5.13-10.476 7.538-15.785 2.19-4.825 1.175-8.325-2.804-10.153-4.483-2.06-7.03.748-8.862 4.087-2.64 4.813-4.86 9.857-7.425 15.13z" fill="#239DD8"/><path d="M531.41 884.352c-1.017-8.176-1.796-15.944-2.906-23.664-.49-3.403 1.115-4.662 3.795-3.772 2.425.805 3.87.094 5.786-1.046 5.14-3.06 10.198-2.145 15.098 1.265 3.037-2.84 6.138-5.258 10.406-5.508 6.554-.383 11.213 2.542 12.475 8.945 1.41 7.158 2.13 14.453 3.115 21.693.312 2.298-.33 3.8-3.044 4.082-2.674.278-3.62-1.07-3.926-3.318-.825-6.088-1.54-12.192-2.444-18.268-.712-4.787-3.634-7.12-7.736-6.45-3.745.61-6.04 4.343-5.415 8.725.844 5.914 1.66 11.832 2.475 17.75.316 2.286-.252 3.913-2.92 4.233-2.475.297-3.807-.707-4.12-3.138-.766-5.933-1.49-11.87-2.298-17.798-.73-5.346-3.203-7.56-7.706-7.042-4 .458-6.093 3.32-5.637 8.442.497 5.617 1.246 11.22 2.138 16.79.432 2.694 1.056 4.892-2.856 5.28-4.002.398-3.7-2.34-3.997-4.785-.08-.66-.122-1.327-.286-2.418z" fill="#239DD8"/><path d="M396.1 871.582c-2.992-6.197-2.186-12.038.096-17.764 4.313-10.82 14.43-14.112 24.43-8.075.824.497 1.662.972 2.524 1.475 2.24-2.406 2.245-5.382 3.09-8.016.655-2.04 1.58-3.16 3.948-2.56 2.358.596 3.526 1.828 2.843 4.292-3.553 12.818-7.164 25.62-10.685 38.45-.835 3.042-3.22 3.47-4.846 1.83-2.36-2.38-4.602-1.378-7.163-1.413-5.958-.08-11.047-2.265-14.238-8.218zm22.987-5.16c.9-2.16 1.604-4.352 1.678-6.738.196-6.382-3.65-10.635-9.417-10.31-4.332.245-7.584 3.852-9.353 10.376-1.65 6.085.05 10.753 4.65 12.767 4.974 2.177 8.42.64 12.442-6.095z" fill="#239DD8"/><path d="M305.735 826.47c2.836 1.566 5.43 1.497 8.073.663 3.012-.95 4.557 1.053 5.258 3.273.92 2.916-1.947 3.206-3.67 3.558-7.022 1.432-13.316-.044-18.027-5.788-4.595-5.6-4.91-11.843-1.944-18.276 5.278-11.443 15.908-15.368 25.77-9.587 8.784 5.15 10.266 15.024 4.165 24.282-1.45 2.203-3.063 1.35-4.693.276-4.593-3.02-9.182-6.05-13.778-9.067-1.366-.897-2.63-2.03-4.34-2.117-3.424 5.47-2.838 7.96 3.185 12.784zm10.63-11.515c1.432.71 2.56 2.142 4.383 1.913 2.508-4.735 1.726-7.99-2.566-10.835-4.45-2.947-8.224-2.34-11.563 2.05 2.65 2.707 6.083 4.365 9.745 6.872z" fill="#239DD8"/><path d="M442.73 871.526c-2.735 3.644-.598 6.26 1.84 8.215 3.745 3.01 8.204 3.3 11.96.23 3.314-2.708 5.572-1.873 8.024.724-3.733 8.43-15.814 10.837-23.862 4.84-6.757-5.038-8.687-14.145-4.984-23.528 2.965-7.514 9.47-11.41 17.95-10.232 11.667 1.622 14.958 10.91 13.437 20.61-.515 3.287-3.383 2.018-5.31 1.773-6.248-.794-12.467-1.81-19.056-2.63zm9.51-13.33c-4.68-.31-7.945 1.4-9.36 6.772 4.123.764 7.974 1.486 11.83 2.19 1.897.344 4.32 1.518 5.44-.586 1.24-2.33-.627-4.405-2.234-6.09-1.286-1.35-2.972-2.1-5.675-2.287z" fill="#239DD8"/><path d="M780.397 765.197c-8.614-2.144-14.37-6.984-16.91-15.148-2.147-6.904 1.452-14.92 8.106-18.695 5.684-3.225 14.86-1.747 19.544 2.91 2.105 2.092.855 3.44-.425 5.088-4.27 5.5-9.323 10.383-13.236 16.504 2.7 2.837 5.672 3.513 9.03 1.888 4.09-1.98 6.692-5.216 6.123-9.902-.482-3.955.805-6.003 5.114-6.598 2.56 4.957 2.466 9.915-.1 14.682-3.557 6.605-9.162 9.918-17.247 9.27zm-11.02-19.705c.186 2.358.72 4.527 3.435 6.007 3.567-4.44 7.842-8.262 10.732-13.274-6.642-4.166-11.27-1.874-14.166 7.266z" fill="#239DD8"/><path d="M634.74 842.03c1.296-10.145 8.012-16.641 16.945-16.82 8.393-.168 15.602 6.616 17.713 16.67 1.798 8.558-1.857 15.85-9.574 19.097-7.957 3.35-16.197.834-20.935-6.405-2.41-3.682-3.783-7.727-4.15-12.543zm27.2-.288c-1.543-4.376-3.643-8.354-8.662-9.392-3.698-.765-6.985.483-9.324 3.45-3.087 3.913-2.136 8.146-.322 12.227 2.81 6.324 7.332 8.87 12.405 7.184 5.654-1.88 7.37-5.416 5.902-13.468z" fill="#239DD8"/><path d="M698.488 801.03c4.154-8.712 11.28-12.713 19.424-11.214 7.267 1.337 14.84 10.093 15.407 17.814.646 8.796-3.588 15.133-11.966 17.91-10.48 3.474-22.897-6.078-23.62-18.205-.12-1.992-.162-4.007.754-6.306zm12.247 15.8c2.86 2.264 5.8 3.73 9.577 1.96 5.328-2.5 7.42-6.835 5.58-12.08-2.478-7.06-8.727-11.596-13.99-10.158-5.513 1.505-8.45 7.034-6.6 12.43.99 2.88 2.615 5.343 5.433 7.848z" fill="#239DD8"/><path d="M757.854 793.25c-.913.012-1.43.086-1.907-.024-2.18-.504-5.397-.382-5.183-3.402.205-2.912 2.615-4.316 5.833-3.95 4.273.484 7.38-1.567 9.502-5.128.985-1.655 1.174-3.563-.113-5.158-1.39-1.724-3.23-1.39-5-.558-3.757 1.767-7.458 3.66-11.262 5.315-3.45 1.5-6.824 1.47-9.662-1.45-2.942-3.03-3.834-6.528-2.232-10.527 2.32-5.79 6.548-9.613 12.475-11.28 3.43-.965 6.9-.698 9.67 2.466-1.29 3.126-2.304 5.365-6.84 4.24-3.735-.93-6.844 1.962-8.66 5.416-.7 1.332-.683 2.952.353 4.262 1.2 1.516 2.69.994 4.068.327 3.44-1.665 6.823-3.446 10.27-5.092 4.267-2.036 8.348-2.165 11.893 1.53 3.492 3.638 3.954 7.883 1.22 12.835-3.064 5.547-7.678 9.064-14.426 10.176z" fill="#239DD8"/><path d="M611.837 839.547c7.7-1.03 12.147 1.17 15.516 7.626 3.25 6.23 4.54 13.162 6.81 19.745.71 2.052.09 3.542-2.156 4.21-2.294.683-3.73.252-4.498-2.32-1.568-5.247-3.19-10.497-5.165-15.6-2.297-5.94-6.413-8.154-11.105-6.477-4.842 1.73-6.67 6.278-4.864 12.37 1.416 4.774 2.94 9.517 4.438 14.267.702 2.226 1.122 4.112-1.964 5.072-2.898.9-3.885-.413-4.628-2.817a2868.622 2868.622 0 0 0-8.384-26.61c-.787-2.46.195-4.617 2.476-4.172 4.235.83 6.533-1.885 9.454-3.695 1.11-.687 2.447-1.007 4.07-1.598z" fill="#239DD8"/><path d="M495.283 867.996c.02 3.486-.115 6.493.103 9.474.368 5.02 3.633 8.687 7.774 9.057 3.893.348 7.358-2.523 8.747-7.372 1.59-5.555.435-11.254.768-16.877.144-2.43-.496-5.35 3.423-5.3 4 .05 3.19 3.083 3.206 5.432.054 8.487-.077 16.976.04 25.463.05 3.544-1.787 5.674-4.7 4.033-2.723-1.534-4.333-.697-6.626.14-9.196 3.363-17.258-1.113-19.218-10.728-1.44-7.072-.87-14.233-.354-21.377.168-2.312 1.115-3.263 3.41-3.196 2.215.065 3.442.94 3.42 3.274-.02 2.496.004 4.992.007 7.978z" fill="#239DD8"/><path d="M689.17 805.42c3.58 6.94 3.24 14.6 5.02 21.813.874 3.538 1.304 7.187 1.922 10.788.344 2.01-.23 3.557-2.116 4.608-1.662.927-3.208 1.828-5.008.3-8.614-7.31-17.243-14.604-26.056-22.063 2.704-3.48 5.097-4.592 8.47-1.587 5.312 4.73 10.79 9.275 17.391 14.92-1.478-8.054-2.68-14.634-3.895-21.213-.655-3.548-.733-6.783 4.273-7.564z" fill="#239DD8"/><path d="M253.042 753.827c-4.64-1.254-7.696 1.095-10.62 3.635a399.14 399.14 0 0 0-10.38 9.34c-1.856 1.73-3.373 1.595-5.1-.21-1.792-1.877-1.61-3.28.297-4.99 6.68-5.99 13.238-12.122 19.895-18.142 1.283-1.16 2.546-3.095 4.65-1.873 1.965 1.141 3.46 2.784 1.88 5.36 3.562 1.88 7.947 2.596 8.84 6.89.445 2.145-1.858 3.228-3.777 3.854-1.836-1.278-3.59-2.5-5.686-3.863z" fill="#239DD8"/><path d="M524.344 124.443c3.364-8.275 15.037-9.975 20.214-3.298 2.56 3.304 1.983 8.09-1.433 11.22-3.52 3.23-7.72 3.948-12.045 2.324-4.376-1.644-7.052-4.86-6.736-10.247z" fill="#239DD8"/><path d="M798.864 722.104c4.337 3.143 8.365 6.103 12.478 8.94 2.058 1.42 2.44 2.822.937 4.962-1.482 2.11-2.814 2.338-4.916.805-7.535-5.498-15.13-10.92-22.777-16.26-3.04-2.124-2.464-5.092.01-5.808 3.753-1.086 3.465-3.78 4.313-6.25 1.812-5.284 3.986-5.72 7.831-1.626-3.582 8.206-3.407 9.627 2.124 15.238z" fill="#239DD8"/><path d="M898.093 536.676c6.112.035 8.018 3.97 8.982 8.613.924 4.45-1.644 10.282-5.056 12.143-5.366 2.928-12.28-1.498-13.244-8.476-.8-5.81 2.728-10.676 9.317-12.28z" fill="#239DD8"/><path d="M833.475 279.057c2.63 1.998 4.545 4.05 4.63 7.147.11 4.138-3.95 7.036-8.487 5.51-6.425-2.16-12.662-4.878-18.972-7.376-1.726-.683-2.686-1.934-2.44-3.852.166-1.3 1.024-2.21 2.293-2.243 7.55-.2 15.147-1.842 22.975.814z" fill="#239DD8"/><path d="M404.77 126.492c5.5 1.997 7.11 5.402 3.982 9.47-4.34 5.644-9.35 10.773-14.094 16.105-1.16 1.302-2.54 1.336-4.068.608-1.755-.837-1.797-2.154-1.26-3.745 1.852-5.506 3.524-11.08 5.57-16.51 1.592-4.223 5.154-5.846 9.87-5.928z" fill="#239DD8"/><path d="M246.486 779.606c6.04-6.247 11.838-12.22 17.598-18.23 1.872-1.955 3.55-3.503 6.183-.836 2.558 2.59.67 4.135-.963 5.8-6.06 6.185-12.155 12.337-18.24 18.498-1.713 1.735-3.334 3.377-5.805.85-2.477-2.534-.717-4.116 1.226-6.082z" fill="#239DD8"/><path d="M273.65 757.468c-2.396-2-2.31-3.725-.278-5.582 1.403-1.28 2.8-1.83 4.37-.473 1.22 1.055 2.927 2.193 1.574 4.07-1.26 1.75-2.435 4.412-5.666 1.985z" fill="#239DD8"/></svg>