<svg version="1.1" id="Layer_1" xmlns="http://www.w3.org/2000/svg" x="0" y="0" width="100%" viewBox="0 0 923 786" enable-background="new 0 0 923 786" xml:space="preserve"><path fill="#FDFEFF" opacity="1.000000" stroke="none" d="M613 787H1V1h923v786H613M463.515 185.395l127.5 76.608c0-15.556-.094-30.037.052-44.515.05-5.037-1.891-8.37-6.244-10.97-37.436-22.35-74.782-44.851-112.2-67.232-2.37-1.418-5.116-2.21-7.865-3.564-.35-.174-.626-.105-1.292.093 0 0-.466.115-.915-.093.001 0-.479.119-.912-.05 0 0-.45.113-.723-.083-.286.124-.572.249-1.618.37-1.677.69-3.476 1.176-5.014 2.097-38.257 22.906-76.47 45.884-114.744 68.761-4.037 2.413-5.668 5.592-5.61 10.25.165 13.495.042 26.994.063 40.49.002 1.2.22 2.398.388 4.108 6.395-3.826 12.238-7.31 18.067-10.815 36.516-21.96 73.029-43.928 110.057-65.84.17-.025.341-.05 1.01.385M585.3 279.449c-9.498.008-18.996-.045-28.493.036-24.305.207-46.26 7.453-65.062 22.952-7.815 6.44-14.718 13.99-22.01 21.063-5.166 5.011-9.457 5.05-14.66-.05-4.642-4.547-9.223-9.155-13.808-13.76-12.478-12.528-27.24-21.178-44.198-26.137-20.393-5.963-41.293-3.762-62.048-3.886-.253-.002-.51.369-1.037.777 0 14.111.2 28.434-.099 42.746-.118 5.696 1.944 9.216 6.817 12.117a18072.193 18072.193 0 0 1 114.708 68.825c5.117 3.097 9.328 2.957 14.288-.11 13.726-8.49 27.646-16.668 41.487-24.974 24.398-14.642 48.856-29.187 73.108-44.069 2.81-1.725 6.256-5.255 6.367-8.068.619-15.61.297-31.256.297-47.18-1.786-.11-3.25-.199-5.657-.283m80.498 233.744c.717-20.531-10.162-35.031-29.06-38.731-13.422-2.628-27.946 3.555-35.518 15.12-7.79 11.9-7.71 29.375.187 41.07 7.998 11.847 22.438 17.794 36.067 14.856 15.813-3.41 24.962-13.594 28.324-32.316m36.133 9.24c3.393 5.137 6.797 10.267 10.174 15.413 5.117 7.796 7.333 8.61 17.206 5.96l-17.74-26.295c1.036-.493 1.475-.723 1.93-.916 10.53-4.451 15.494-12.355 14.164-22.553-1.333-10.225-8.156-16.911-19.491-18.045-7.59-.76-15.28-.535-22.925-.707-2.902-.065-5.805-.01-8.579-.01v69.156h10.71v-25.747c5.089 1.437 10.427-2.51 14.551 3.744m-299.517 69.787c-3.963-2.84-7.657-7.547-11.94-8.162-11.873-1.707-23.99-1.709-36.063-2.387v69.79h10.662v-25.74c2.07 0 3.585.201 5.027-.036 5.25-.862 8.662 1.02 11.183 5.854 2.449 4.694 5.864 8.876 8.743 13.355 4.79 7.452 7.775 8.569 17.149 5.903L389.39 624.52c15.698-8.21 19.624-17.762 13.023-32.3m-210.396-60.73v-55.904h-10.91v28.12h-34.66V475.6l-10.36.001v68.754h10.75v-30.169h34.285v30.15h10.895V531.49m298.353 7.69v-63.53h-11.198v28.165H444.97v-28.184l-10.73.001v68.76h10.87v-30.22h34.364v30.368h10.56c.118-1.573.226-3.01.336-5.359m48.983 3.07c22.19 10.352 47.93-2.575 49.199-24.932h-10.945c-.473 1.358-.883 2.598-1.334 3.824-3.442 9.36-11.158 14.888-20.86 14.955-9.58.065-18.263-5.32-20.874-14.74-1.676-6.044-2.127-12.9-1.174-19.092 1.65-10.726 10.655-17.895 20.79-18.303 10.557-.424 19.028 5.617 22.612 16.13.303.887.576 1.784.792 2.455h11.169c-3.325-21.998-26.382-34.742-46.604-25.986-12.601 5.458-19.528 15.474-20.917 28.828-1.611 15.485 3.773 28.13 18.143 36.861m-5.436 48.718c13.132-.304 19.515 4.015 24.338 16.218.438 1.109 1.803 2.457 2.876 2.592 2.875.361 5.825.123 8.74.123-.375-16.458-15.815-29.093-34.475-28.913-18.542.179-33.108 16.016-33.113 36.003-.006 19.577 14.62 35.6 32.79 35.924 18.728.334 34.392-12.477 34.821-28.7h-10.987c-.403 1.37-.715 2.645-1.15 3.877-3.858 10.937-15.247 17.09-26.346 14.254-11.026-2.818-17.469-12.106-17.554-25.305-.09-13.86 6.36-22.598 20.061-26.072m-252.649 53.755c10.059-13.5 5.496-26.72-10.654-30.854-1.285-.33-2.592-.577-3.884-.883-4.846-1.148-9.79-1.995-14.506-3.542-5.052-1.656-6.979-5.212-6.257-9.988.882-5.839 7.454-9.943 14.596-9.21 8.294.851 12.502 5.97 13.949 13.392h10.914c-.384-2.036-.557-3.693-1.015-5.266-4.965-17.063-30.27-23.141-43.704-10.522-10.062 9.452-7.577 24.78 5.065 30.372 2.997 1.326 6.33 1.913 9.53 2.75 4.648 1.213 9.515 1.853 13.93 3.63 6.163 2.484 7.262 10.194 2.578 14.885-8.193 8.203-24.746 3.922-28.062-7.157-.374-1.252-1.74-2.91-2.86-3.096-2.716-.452-5.558-.147-8.333-.147-.114 8.562 4.058 15.677 11.202 19.67 11.14 6.227 27.106 4.704 37.513-4.037m356.869-33.614c3.304 5.068 8.316 7.538 13.943 8.888 5 1.2 10.118 1.915 15.091 3.204 6.044 1.566 9.083 5.218 8.809 9.904-.282 4.8-4.14 8.994-9.763 9.86-14.092 2.17-19.54-2.26-22.299-13.534h-10.253c.724 10.473 5.563 17.342 14.7 20.874 7.034 2.72 14.334 2.934 21.584 1.244 11.201-2.611 17.842-10.462 17.75-20.462-.086-9.369-5.572-14.936-17.638-17.758-5.01-1.172-10.128-1.93-15.067-3.336-5.835-1.66-8.225-4.782-7.973-9.362.262-4.783 3.787-8.55 9.161-9.79 10.012-2.312 15.497 1.247 19.852 12.925h10.331c-1.252-17.428-19.485-27.435-36.943-20.516-11.775 4.667-16.31 15.277-11.286 27.859M247.02 508.529l-.373-4.732H218.02l-.001-18.788h31.748v-9.461l-42.76-.001v68.874h43.366v-9.419H218.03v-21.134l28.759.001c.094-1.81.162-3.108.23-5.34m39.03-33.256c-1.32 1.192-3.286 2.133-3.866 3.615-8.052 20.582-15.922 41.236-23.803 61.885-.43 1.126-.569 2.362-.856 3.602 10.362.914 10.362.914 13.748-8.388.284-.781.704-1.538.842-2.343.866-5.05 3.824-6.711 8.773-5.998 2.775.4 5.655.035 8.487.08 4.65.073 10.398-1.426 13.635.765 3.185 2.156 3.83 8.072 5.576 12.345.25.615.246 1.422.656 1.863.721.775 1.634 1.827 2.534 1.896 3.034.235 6.098.089 9.634.089-.726-2.361-1.08-3.793-1.6-5.161a29463.66 29463.66 0 0 0-21.514-56.35c-3.02-7.882-3.054-7.869-12.245-7.906m55.965 173.961v-7.357h-32.684l.001-21.35h28.95v-9.576h-29.004v-18.995h31.798v-9.383h-42.57v69.143c13.887 0 27.359.03 40.83-.067.884-.006 1.762-.982 2.681-2.415m282.355-63.422c.39-2.957-1.105-3.638-3.8-3.587-7.322.14-14.648.047-21.972.047h-17.363v69.082h43.325v-9.633h-32.244v-21.24h28.68v-9.56h-28.788v-19.01h31.92c.094-1.996.17-3.622.242-6.1m161.186-74.867c8.293-14.511 2.639-31.166-12.7-34.12-10.757-2.073-22.026-1.477-33.3-2.086v69.627h10.953l-.001-23.628c5.542-.001 10.525.24 15.475-.058 7.545-.453 14.384-2.704 19.571-9.737M449.068 616.494l-7.709 21.357c-1.019-2.52-1.68-3.997-2.22-5.518-5.439-15.344-10.921-30.674-16.228-46.065-1.01-2.93-2.353-4.46-5.649-4.05-2.251.282-4.566.055-7.325.055.496 1.807.747 3.07 1.186 4.263 7.516 20.427 15.23 40.783 22.45 61.313 1.51 4.295 4.139 3.904 7.265 3.884 3.255-.02 6.123.542 7.706-4.017 6.595-18.988 13.728-37.789 20.658-56.66 1.003-2.731 1.976-5.473 3.081-8.535-1.906-.11-3.084-.042-4.204-.265-5.224-1.04-7.575 1.32-9.104 6.257-2.849 9.194-6.403 18.17-9.908 27.982m-46.162-75.318V485.32h21.728v-9.636h-55.052v9.676c5.42 0 10.569.293 15.667-.085 4.851-.36 6.654.872 6.517 6.23-.404 15.808-.143 31.634-.143 47.453v5.747c3.305 0 5.975.236 8.563-.12.998-.137 1.812-1.62 2.72-3.409M341.721 516.5v-40.96h-10.697v68.773h41.632v-9.827h-30.936l.002-17.987m150.188 92v-25.963h-10.627v68.747h10.627V608.5z"/><path fill="#1972B7" opacity="1.000000" stroke="none" d="M585.772 279.447c1.935.086 3.399.176 5.185.285 0 15.924.322 31.57-.297 47.18-.11 2.813-3.556 6.343-6.367 8.067-24.252 14.88-48.71 29.426-73.108 44.068-13.84 8.306-27.76 16.483-41.487 24.973-4.96 3.069-9.17 3.209-14.287.112-38.146-23.09-76.39-46.019-114.707-68.825-4.873-2.9-6.935-6.42-6.817-12.117.299-14.312.1-28.635.1-42.746.527-.408.783-.779 1.036-.777 20.755.124 41.655-2.077 62.047 3.886 16.958 4.96 31.719 13.609 44.197 26.138 4.585 4.605 9.166 9.213 13.808 13.76 5.203 5.1 9.494 5.061 14.66.051 7.292-7.07 14.195-14.621 22.01-21.062 18.802-15.499 40.758-22.745 65.062-22.952 9.497-.08 18.995-.028 28.965-.04z"/><path fill="#1A72B7" opacity="1.000000" stroke="none" d="M461.188 135.785s.45-.113.64.453c.18 16.616.17 32.668.162 48.72-36.514 21.964-73.027 43.931-109.543 65.893-5.83 3.507-11.672 6.99-18.066 10.816-.167-1.71-.385-2.908-.387-4.107-.02-13.498.102-26.997-.064-40.492-.058-4.658 1.573-7.837 5.609-10.25 38.273-22.877 76.486-45.855 114.743-68.761 1.538-.921 3.337-1.408 5.686-2.075.854-.05 1.036-.124 1.218-.197z"/><path fill="#20AC80" opacity="1.000000" stroke="none" d="M464.935 135.994c2.572 1.083 5.317 1.874 7.688 3.292 37.418 22.38 74.764 44.882 112.2 67.232 4.353 2.6 6.294 5.933 6.244 10.97-.146 14.478-.052 28.959-.052 44.515-42.946-25.804-85.223-51.206-127.746-77.301-.255-16.72-.262-32.746-.27-48.772 0 0 .466-.115.946.01.65.102.82.078.99.054z"/><path fill="#736E6C" opacity="1.000000" stroke="none" d="M665.754 513.639c-3.318 18.276-12.467 28.46-28.28 31.87-13.629 2.937-28.069-3.01-36.067-14.856-7.897-11.696-7.976-29.172-.187-41.07 7.572-11.566 22.096-17.75 35.519-15.121 18.896 3.7 29.775 18.2 29.014 39.176m-58.508 2.12c2.405 10.39 8.021 18.035 18.972 19.994 9.122 1.632 17.146-.982 22.896-8.76 6.855-9.273 7.063-23.835.537-33.292-9.354-13.558-30.059-12.977-38.712 1.049-3.856 6.251-4.535 13.06-3.692 21.01z"/><path fill="#75706E" opacity="1.000000" stroke="none" d="M701.708 522.117c-3.9-5.937-9.24-1.99-14.328-3.428v25.746h-10.71V475.28c2.773 0 5.676-.055 8.578.01 7.646.173 15.335-.052 22.925.708 11.335 1.134 18.158 7.82 19.49 18.045 1.33 10.198-3.634 18.102-14.162 22.553-.455.193-.894.423-1.93.916l17.74 26.295c-9.873 2.65-12.09 1.836-17.206-5.96-3.377-5.146-6.78-10.276-10.396-15.73m-14.5-22.672v10c1.918.147 3.21.366 4.491.32 4.795-.172 9.615-.186 14.375-.716 6.516-.725 10.496-5.28 10.706-11.652.202-6.051-3.848-11.503-10.162-12.151-6.195-.636-12.506-.139-19.41-.139v14.337z"/><path fill="#756F6D" opacity="1.000000" stroke="none" d="M402.615 592.538c6.399 14.22 2.473 23.771-13.224 31.983l17.785 26.276c-9.374 2.666-12.36 1.55-17.15-5.903-2.878-4.48-6.293-8.66-8.742-13.355-2.52-4.834-5.934-6.716-11.184-5.854-1.443.237-2.958.036-5.028.036v25.74H354.41v-69.79c12.072.68 24.19.681 36.063 2.388 4.283.615 7.977 5.323 12.142 8.48m-34.96-.81c-.875.69-2.492 1.36-2.51 2.072-.185 7.401-.114 14.809-.114 22.483 4.799 0 8.932.015 13.065-.008 1.49-.008 2.988-.037 4.47-.177 7.566-.711 11.722-5.021 11.725-12.104.004-7.067-4.133-11.508-11.74-12.083-4.619-.348-9.279-.145-14.896-.183z"/><path fill="#746F6D" opacity="1.000000" stroke="none" d="M192.017 531.987v12.349h-10.895v-30.15h-34.285v30.168h-10.75V475.6l10.36.001v28.106h34.66v-28.12h10.91v56.4z"/><path fill="#736E6C" opacity="1.000000" stroke="none" d="M490.369 539.636c-.11 1.893-.218 3.33-.336 4.902h-10.56V514.17h-34.365v30.22h-10.87v-68.759l10.73.001v28.185h34.202v-28.164h11.198l-.001 63.986z"/><path fill="#736E6C" opacity="1.000000" stroke="none" d="M539.014 542.094c-14.03-8.577-19.415-21.22-17.805-36.706 1.388-13.354 8.315-23.37 20.916-28.827 20.222-8.755 43.279 3.99 46.603 25.987h-11.17c-.216-.671-.49-1.568-.792-2.455-3.584-10.513-12.055-16.554-22.613-16.13-10.134.408-19.139 7.577-20.789 18.303-.953 6.191-.502 13.048 1.173 19.091 2.61 9.422 11.293 14.806 20.873 14.74 9.702-.066 17.418-5.594 20.86-14.954.45-1.226.861-2.466 1.333-3.824h10.946c-1.27 22.357-27.01 35.284-49.538 24.776z"/><path fill="#736E6C" opacity="1.000000" stroke="none" d="M533.486 591c-13.27 3.442-19.72 12.18-19.63 26.039.085 13.198 6.528 22.486 17.554 25.304 11.099 2.836 22.488-3.317 26.346-14.253.435-1.23.747-2.505 1.15-3.877h10.987c-.43 16.224-16.093 29.035-34.822 28.7-18.169-.324-32.794-16.346-32.788-35.923.005-19.987 14.57-35.824 33.113-36.003 18.66-.18 34.1 12.455 34.475 28.914-2.915.001-5.865.24-8.739-.122-1.072-.135-2.437-1.483-2.875-2.592-4.823-12.203-11.206-16.522-24.77-16.187z"/><path fill="#736E6C" opacity="1.000000" stroke="none" d="M281.012 644.977c-10.151 8.487-26.116 10.01-37.257 3.783-7.144-3.993-11.316-11.108-11.202-19.67 2.775 0 5.617-.305 8.333.147 1.12.186 2.486 1.844 2.86 3.096 3.316 11.08 19.869 15.36 28.062 7.156 4.684-4.692 3.585-12.402-2.579-14.885-4.415-1.778-9.282-2.418-13.93-3.632-3.2-.836-6.533-1.424-9.53-2.75-12.641-5.591-15.126-20.92-5.064-30.37 13.435-12.62 38.74-6.542 43.705 10.52.459 1.574.632 3.231 1.016 5.266h-10.914c-1.447-7.423-5.655-12.542-13.949-13.393-7.142-.733-13.714 3.371-14.596 9.21-.722 4.776 1.205 8.332 6.257 9.988 4.715 1.547 9.66 2.394 14.506 3.542 1.292.306 2.599.553 3.884.882 16.15 4.132 20.713 17.353 10.398 31.107z"/><path fill="#736E6C" opacity="1.000000" stroke="none" d="M637.974 610.76c-4.862-12.233-.326-22.843 11.449-27.509 17.458-6.917 35.691 3.09 36.943 20.517h-10.331c-4.355-11.678-9.84-15.237-19.852-12.926-5.374 1.242-8.899 5.009-9.161 9.792-.252 4.58 2.138 7.7 7.973 9.362 4.939 1.406 10.058 2.164 15.068 3.336 12.065 2.822 17.552 8.39 17.637 17.758.092 10-6.549 17.85-17.751 20.462-7.251 1.69-14.55 1.477-21.586-1.244-9.136-3.532-13.975-10.4-14.7-20.874h10.254c2.76 11.273 8.207 15.704 22.299 13.534 5.624-.866 9.48-5.06 9.762-9.86.273-4.686-2.766-8.338-8.809-9.904-4.971-1.289-10.09-2.004-15.09-3.204-5.627-1.35-10.64-3.82-14.107-9.237z"/><path fill="#76706E" opacity="1.000000" stroke="none" d="M247.02 508.997a320.046 320.046 0 0 1-.231 4.874l-28.76.001v21.135h32.344v9.42h-43.367v-68.876l42.761-.001v9.46h-31.75v18.788h28.63c.149 1.897.26 3.315.372 5.2z"/><path fill="#746F6D" opacity="1.000000" stroke="none" d="M286.48 475.272c8.762.04 8.796.026 11.816 7.909 7.194 18.775 14.358 37.56 21.514 56.349.52 1.367.874 2.799 1.6 5.159-3.536-.001-6.6.145-9.634-.09-.9-.07-1.813-1.122-2.534-1.897-.41-.441-.405-1.248-.656-1.863-1.745-4.273-2.39-10.19-5.577-12.346-3.238-2.19-8.987-.69-13.636-.764-2.832-.045-5.712.32-8.487-.08-4.949-.714-7.907.947-8.773 5.997-.138.805-.558 1.562-.842 2.342-3.386 9.3-3.386 9.3-13.748 8.387.287-1.24.427-2.476.857-3.602 7.882-20.65 15.752-41.303 23.804-61.886.58-1.483 2.546-2.424 4.296-3.618m-7.2 43.47h21.138l-10.76-29.507-1.313-.084c-3.288 9.785-6.576 19.57-9.065 29.592z"/><path fill="#76706E" opacity="1.000000" stroke="none" d="M341.996 649.69c-.9.978-1.778 1.954-2.663 1.96-13.47.097-26.942.067-40.83.067v-69.143h42.57v9.383h-31.797v18.995h29.004v9.576h-28.949l.001 21.35h32.685c0 2.802 0 5.08-.019 7.81z"/><path fill="#75706E" opacity="1.000000" stroke="none" d="M624.372 586.24c-.074 2.05-.15 3.676-.244 5.672h-31.92v19.01h28.787v9.56h-28.68v21.24h32.245v9.633h-43.325v-69.082h17.363c7.324 0 14.65.092 21.972-.047 2.695-.051 4.19.63 3.802 4.013z"/><path fill="#76706E" opacity="1.000000" stroke="none" d="M785.343 511.243c-4.974 6.735-11.813 8.986-19.358 9.44-4.95.297-9.933.056-15.476.056l-.001 23.627h-10.954v-69.628c11.274.608 22.543.013 33.3 2.084 15.339 2.955 20.993 19.61 12.487 34.42m-13.665-1.647c5.797-3.49 7.333-8.843 6.1-15.049-1.052-5.286-4.8-8.642-9.933-9.224-5.67-.643-11.47-.147-17.33-.147v26.711c7.066-.681 13.748-1.326 21.163-2.291z"/><path fill="#746F6D" opacity="1.000000" stroke="none" d="M449.19 616.122c3.383-9.44 6.937-18.416 9.786-27.61 1.529-4.936 3.88-7.297 9.105-6.257 1.121.223 2.3.155 4.205.265-1.105 3.062-2.078 5.804-3.081 8.535-6.93 18.871-14.063 37.672-20.658 56.66-1.583 4.56-4.451 3.997-7.707 4.017-3.127.02-5.755.41-7.266-3.884-7.22-20.53-14.934-40.886-22.45-61.313-.44-1.193-.69-2.456-1.186-4.263 2.759 0 5.074.227 7.325-.054 3.296-.412 4.64 1.12 5.65 4.049 5.306 15.39 10.788 30.72 16.228 46.065.54 1.52 1.201 2.998 2.22 5.52 2.814-7.8 5.261-14.58 7.83-21.73z"/><path fill="#746F6D" opacity="1.000000" stroke="none" d="M402.901 541.635c-.901 1.33-1.715 2.813-2.713 2.95-2.588.356-5.258.12-8.563.12v-5.747c0-15.82-.26-31.645.143-47.454.137-5.357-1.666-6.588-6.518-6.229-5.1.378-10.248.085-15.668.085v-9.676h55.052v9.637h-21.728c0 18.967 0 37.411-.005 56.315z"/><path fill="#76706E" opacity="1.000000" stroke="none" d="m341.721 517 .001 17.486h30.937v9.827h-41.632V475.54h10.697V517z"/><path fill="#736E6C" opacity="1.000000" stroke="none" d="M491.91 609v42.284h-10.627v-68.747h10.627V609z"/><path fill="#49B1B9" opacity="1.000000" stroke="none" d="M462.776 135.826c.232 16.13.24 32.156.243 48.647-.175.488-.345.512-.773.51-.249-16.077-.24-32.129-.203-48.661.027-.481.507-.6.732-.496z"/><path fill="#49B1B9" opacity="1.000000" stroke="none" d="M464.847 135.858c-.081.16-.251.184-.668.139-.048-.38.228-.45.667-.14z"/><path fill="#49B1B9" opacity="1.000000" stroke="none" d="M461.052 135.687c-.046.171-.228.244-.703.297-.007-.145.279-.27.702-.297z"/><path fill="#FCFDFD" opacity="1.000000" stroke="none" d="M607.168 515.33c-.765-7.52-.086-14.329 3.77-20.58 8.653-14.025 29.358-14.606 38.713-1.048 6.527 9.457 6.319 24.02-.536 33.291-5.75 7.78-13.774 10.393-22.896 8.761-10.95-1.959-16.567-9.604-19.05-20.423z"/><path fill="#F9FAFB" opacity="1.000000" stroke="none" d="M687.207 498.956v-13.848c6.905 0 13.216-.497 19.411.139 6.314.648 10.364 6.1 10.164 12.151-.211 6.371-4.19 10.927-10.707 11.651-4.76.529-9.58.543-14.376.715-1.283.046-2.574-.173-4.493-.32v-10.489z"/><path fill="#FCFDFD" opacity="1.000000" stroke="none" d="M368.142 591.723c5.13.042 9.79-.161 14.408.188 7.607.576 11.744 5.018 11.74 12.084-.003 7.083-4.16 11.393-11.725 12.104-1.482.14-2.98.169-4.47.177-4.133.023-8.266.008-13.064.008 0-7.674-.07-15.082.115-22.483.018-.712 1.635-1.383 2.997-2.077z"/><path fill="#F9FAFB" opacity="1.000000" stroke="none" d="M278.88 518.623c2.89-9.904 6.177-19.688 9.465-29.472.438.03.876.057 1.313.085l10.76 29.508c-7.582 0-14.36 0-21.537-.12z"/><path fill="#F9FAFB" opacity="1.000000" stroke="none" d="M771.312 509.757c-7.049.805-13.73 1.45-20.797 2.131v-26.711c5.86 0 11.66-.496 17.33.147 5.133.582 8.88 3.938 9.932 9.224 1.234 6.206-.302 11.56-6.465 15.21z"/></svg>